# xmcd
#
# Track frame offsets:
#	150
#	18006
#	36640
#	59191
#	77815
#	96880
#	116314
#	135003
#	151987
#	166030
#	184093
#	201180
#	221131
#
# Disc length: 3175 seconds
#
# Revision: 2
# Processed by: cddbd v1.5.2PL0 Copyright (c) Steve Scherf et al.
# Submitted via: audiograbber 1.83.01
#
DISCID=aa0c650d
DTITLE=James Last and Richard Clayderman - Together At Last
DYEAR=2004
DGENRE=Easy Music
TTITLE0=From A Distance
TTITLE1=(Everything I Do) I Do It For You
TTITLE2=Sacrifice
TTITLE3=Moonfire
TTITLE4=Careless Whisper
TTITLE5=Crockett's Theme (From 'Chancer')
TTITLE6=Wind Beneath My Wings
TTITLE7=Any Dream Will Do
TTITLE8=Unchained Melody
TTITLE9=Indigo Bay
TTITLE10=Promise Me
TTITLE11=Reflections
TTITLE12=Candle In The Wind
EXTD=
EXTT0=
EXTT1=
EXTT2=
EXTT3=
EXTT4=
EXTT5=
EXTT6=
EXTT7=
EXTT8=
EXTT9=
EXTT10=
EXTT11=
EXTT12=
PLAYORDER=
